<svg width="289" height="176" viewBox="0 0 289 176" fill="none" xmlns="http://www.w3.org/2000/svg">
<g clip-path="url(#clip0_1226_563)">
<path d="M282.941 68.0457C187.73 69.681 78.8178 97.8139 0 174.89L69.3101 175.287C106.656 131.65 173.832 76.0218 282.941 68.0457Z" fill="#9D9D9D"/>
<path d="M77.4517 175.335L140.423 175.695C152.033 149.743 207.938 80.591 277.894 68.9995C177.435 80.6431 113.215 133.626 77.4517 175.335Z" fill="#9D9D9D"/>
<path d="M165.049 73.4766C149.061 54.8029 136.022 52.2617 115.203 52.1415C124.998 50.418 136.463 45.8688 136.565 27.2591C136.671 7.14245 121.416 0.480973 91.5144 0.308624L37.3183 0L36.5703 135.678C130.923 75.2923 198.438 71.4806 247.418 66.3823C205.3 67.3001 194.155 67.3723 165.049 73.4766ZM67.2471 20.0285L88.8058 20.4814C100.412 20.5496 104.896 26.7902 104.853 34.7383C104.794 45.4159 99.3726 49.945 89.8137 49.8929L67.0817 50.0893L67.2471 20.0285ZM66.7549 109.702L66.9715 70.8273L103.983 71.0998C113.687 71.1559 128.191 77.9617 130.616 81.9017C110.817 88.1102 89.6483 96.5273 66.7549 109.702Z" fill="#79B4B7"/>
<path d="M289 69.6128C283.075 70.5347 258.957 75.0197 233.249 89.8618V89.7936C232.895 90.0181 232.501 90.2706 232.095 90.5351C227.064 93.4971 221.977 96.8599 216.966 100.672C210.013 105.405 203.828 109.678 203.828 109.678L203.23 143.651C203.167 155.378 197.631 156.613 192.285 156.581C186.939 156.549 182.084 155.046 182.139 144.997L182.443 127.41C169.348 143.146 158.825 157.847 158.825 157.847C158.77 168.108 160.679 175.816 193.383 176.004C230.816 176.216 232.863 159.318 232.93 147.174L233.21 96.2908C252.19 82.9197 268.823 76.7232 289 69.6128Z" fill="#79B4B7"/>
</g>
<defs>
<clipPath id="clip0_1226_563">
<rect width="289" height="176" fill="white"/>
</clipPath>
</defs>
</svg>
